<svg width="27" height="26" viewBox="0 0 27 26" fill="none" xmlns="http://www.w3.org/2000/svg">
<g clip-path="url(#clip0_2005_12920)">
<path d="M24.2853 5.49998H18.9282V4.42852C18.9282 3.24672 17.9671 2.28564 16.7853 2.28564H10.3567C9.17492 2.28564 8.21385 3.24667 8.21385 4.42852V5.49993H2.85674C1.67489 5.49998 0.713867 6.46101 0.713867 7.64281V10.8571C0.713867 12.039 1.67489 13 2.85674 13H11.4282V12.4642C11.4282 12.1681 11.6678 11.9285 11.9639 11.9285H15.1782C15.4743 11.9285 15.7139 12.1681 15.7139 12.4642V13H24.2854C25.4671 13 26.4282 12.039 26.4282 10.8571V7.64281C26.4282 6.46101 25.4671 5.49998 24.2853 5.49998ZM16.7853 5.49998H10.3567V4.42852H16.7853V5.49998Z" fill="currentColor"/>
<path d="M26.131 13.578C25.9484 13.4875 25.7302 13.5085 25.5691 13.6309C25.1882 13.9191 24.7446 14.0714 24.2852 14.0714H15.7139V15.6785C15.7139 15.9746 15.4743 16.2143 15.1782 16.2143H11.9639C11.6678 16.2143 11.4281 15.9746 11.4281 15.6785V14.0714H2.85674C2.3974 14.0714 1.95378 13.9191 1.57289 13.6309C1.41122 13.5074 1.1936 13.4865 1.01099 13.578C0.828979 13.6686 0.713867 13.8543 0.713867 14.0578V21.5714C0.713867 22.7532 1.67489 23.7143 2.85674 23.7143H24.2853C25.4671 23.7143 26.4282 22.7533 26.4282 21.5714V14.0578C26.4282 13.8543 26.313 13.6686 26.131 13.578Z" fill="currentColor"/>
</g>
<defs>
<clipPath id="clip0_2005_12920">
<rect width="25.7143" height="25.7143" fill="white" transform="translate(0.713867 0.142853)"/>
</clipPath>
</defs>
</svg>
