<svg width="24" height="25" viewBox="0 0 24 25" fill="none" xmlns="http://www.w3.org/2000/svg">
<path d="M15 21.5V16.1C15 15.5399 15 15.2599 14.891 15.046C14.7951 14.8578 14.6422 14.7049 14.454 14.609C14.2401 14.5 13.9601 14.5 13.4 14.5H10.6C10.0399 14.5 9.75992 14.5 9.54601 14.609C9.35785 14.7049 9.20487 14.8578 9.10899 15.046C9 15.2599 9 15.5399 9 16.1V21.5M19 21.5V6.7C19 5.5799 19 5.01984 18.782 4.59202C18.5903 4.21569 18.2843 3.90973 17.908 3.71799C17.4802 3.5 16.9201 3.5 15.8 3.5H8.2C7.07989 3.5 6.51984 3.5 6.09202 3.71799C5.71569 3.90973 5.40973 4.21569 5.21799 4.59202C5 5.01984 5 5.5799 5 6.7V21.5M21 21.5H3M9.5 8.5H9.51M14.5 8.5H14.51M10 8.5C10 8.77614 9.77614 9 9.5 9C9.22386 9 9 8.77614 9 8.5C9 8.22386 9.22386 8 9.5 8C9.77614 8 10 8.22386 10 8.5ZM15 8.5C15 8.77614 14.7761 9 14.5 9C14.2239 9 14 8.77614 14 8.5C14 8.22386 14.2239 8 14.5 8C14.7761 8 15 8.22386 15 8.5Z" stroke="currentColor" stroke-width="2" stroke-linecap="round" stroke-linejoin="round"/>
</svg>
