<svg width="24" height="25" viewBox="0 0 24 25" fill="none" xmlns="http://www.w3.org/2000/svg">
<path d="M18 2.5V4.5M6 2.5V4.5M11.05 22.5C7.02 22.5 5.004 22.5 3.752 21.146C2.5 19.793 2.5 17.614 2.5 13.256V12.743C2.5 8.386 2.5 6.207 3.752 4.853C5.004 3.5 7.02 3.5 11.05 3.5H12.95C16.98 3.5 18.996 3.5 20.248 4.854C21.427 6.128 21.496 8.134 21.5 12V13.5" stroke="currentColor" stroke-width="1.5" stroke-linecap="round" stroke-linejoin="round"/>
<path d="M13 18H21M13 18C13 18.7 14.994 20.009 15.5 20.5M13 18C13 17.3 14.994 15.992 15.5 15.5M3 8.5H21" stroke="currentColor" stroke-width="1.5" stroke-linecap="round" stroke-linejoin="round"/>
</svg>
