<svg width="25" height="25" viewBox="0 0 25 25" fill="none" xmlns="http://www.w3.org/2000/svg">
<path d="M11.55 22.5C7.52 22.5 5.504 22.5 4.252 21.146C3 19.793 3 17.614 3 13.256V12.743C3 8.386 3 6.207 4.252 4.853C5.504 3.5 7.52 3.5 11.55 3.5H13.45C17.48 3.5 19.496 3.5 20.748 4.854C21.927 6.128 21.996 8.134 22 12V13.5M21.5 19H13.5M21.5 19C21.5 19.7 19.506 21.009 19 21.5M21.5 19C21.5 18.3 19.506 16.991 19 16.5M18.5 2.5V4.5M6.5 2.5V4.5M3.5 8.5H21.5" stroke="#DF5C34" stroke-width="1.5" stroke-linecap="round" stroke-linejoin="round"/>
</svg>
