<svg width="19" height="19" viewBox="0 0 19 19" fill="none" xmlns="http://www.w3.org/2000/svg">
<g clip-path="url(#clip0_4195_437)">
<path d="M3.74395 15L14.5439 4.19999M1.04395 9.59999C1.04395 11.7482 1.89733 13.8085 3.41638 15.3276C4.93542 16.8466 6.99569 17.7 9.14394 17.7C11.2922 17.7 13.3525 16.8466 14.8715 15.3276C16.3906 13.8085 17.2439 11.7482 17.2439 9.59999C17.2439 7.45174 16.3906 5.39147 14.8715 3.87243C13.3525 2.35338 11.2922 1.49999 9.14394 1.49999C6.99569 1.49999 4.93542 2.35338 3.41638 3.87243C1.89733 5.39147 1.04395 7.45174 1.04395 9.59999Z" stroke="#F03A3A" stroke-width="1.35" stroke-linecap="round" stroke-linejoin="round"/>
</g>
<defs>
<clipPath id="clip0_4195_437">
<rect width="18" height="18" fill="white" transform="translate(0.143555 0.599991)"/>
</clipPath>
</defs>
</svg>
