<svg width="31" height="31" viewBox="0 0 31 31" fill="none" xmlns="http://www.w3.org/2000/svg">
<g clip-path="url(#clip0_4004_1502)">
<path d="M5.33147 10.0101L10.2365 11.4262L15.6278 7.51068L7.89063 7.73248C7.81474 7.73583 7.74111 7.75939 7.67737 7.80072L5.2291 9.20826C5.15294 9.25046 5.0912 9.31453 5.05185 9.39219C5.0125 9.46986 4.99736 9.55754 5.00839 9.64391C5.01941 9.73027 5.05609 9.81134 5.11369 9.87663C5.17129 9.94192 5.24715 9.98843 5.33147 10.0101Z" fill="#6C6C7F"/>
<path d="M29.4475 5.6254L24.0733 4.46525C23.6213 4.36713 23.1535 4.36738 22.7016 4.466C22.2498 4.56461 21.8244 4.75928 21.4544 5.0368L5.22074 16.8346L1.32228 16.6639C1.09898 16.6564 0.878935 16.7191 0.693218 16.8433C0.507502 16.9675 0.365495 17.1469 0.287251 17.3562C0.209006 17.5655 0.198477 17.7941 0.257149 18.0097C0.315822 18.2252 0.440732 18.417 0.614242 18.5577L4.41034 21.569C4.47283 21.6194 4.54722 21.653 4.62638 21.6664C4.70554 21.6798 4.78683 21.6727 4.86246 21.6458C5.94584 21.2278 9.98079 19.0866 14.7494 16.4677L15.7048 26.2864C15.7129 26.3714 15.7441 26.4527 15.7949 26.5213C15.8458 26.5899 15.9145 26.6433 15.9935 26.6758C16.0725 26.7083 16.1588 26.7186 16.2433 26.7056C16.3277 26.6926 16.407 26.6568 16.4725 26.602L18.6052 24.8277C18.7219 24.7298 18.8005 24.5939 18.827 24.4438L20.8487 13.1067C24.2609 11.2129 27.5196 9.37885 29.8143 8.0822C30.0525 7.95262 30.245 7.75297 30.3659 7.5103C30.4868 7.26763 30.5301 6.99366 30.4901 6.72553C30.4501 6.45739 30.3286 6.20804 30.1421 6.01125C29.9556 5.81447 29.7131 5.67977 29.4475 5.6254Z" fill="#6C6C7F"/>
</g>
<defs>
<clipPath id="clip0_4004_1502">
<rect width="30.71" height="30.71" fill="white" transform="translate(0 0.199982)"/>
</clipPath>
</defs>
</svg>
