<svg width="14" height="14" viewBox="0 0 14 14" fill="none" xmlns="http://www.w3.org/2000/svg">
<path d="M6.64323 7.84164C6.94238 7.84164 7.1849 7.59913 7.1849 7.29998C7.1849 7.00082 6.94238 6.75831 6.64323 6.75831C6.34407 6.75831 6.10156 7.00082 6.10156 7.29998C6.10156 7.59913 6.34407 7.84164 6.64323 7.84164Z" stroke="#667085" stroke-width="1.08333" stroke-linecap="round" stroke-linejoin="round"/>
<path d="M6.64323 4.04998C6.94238 4.04998 7.1849 3.80747 7.1849 3.50831C7.1849 3.20916 6.94238 2.96664 6.64323 2.96664C6.34407 2.96664 6.10156 3.20916 6.10156 3.50831C6.10156 3.80747 6.34407 4.04998 6.64323 4.04998Z" stroke="#667085" stroke-width="1.08333" stroke-linecap="round" stroke-linejoin="round"/>
<path d="M6.64323 11.6333C6.94238 11.6333 7.1849 11.3908 7.1849 11.0916C7.1849 10.7925 6.94238 10.55 6.64323 10.55C6.34407 10.55 6.10156 10.7925 6.10156 11.0916C6.10156 11.3908 6.34407 11.6333 6.64323 11.6333Z" stroke="#667085" stroke-width="1.08333" stroke-linecap="round" stroke-linejoin="round"/>
</svg>
