<svg width="24" height="25" viewBox="0 0 24 25" fill="none" xmlns="http://www.w3.org/2000/svg">
<path d="M8.75 10.304C8.54333 10.304 8.37 10.234 8.23 10.094C8.09 9.95401 8.02 9.78068 8.02 9.57401C8.02 9.36734 8.09 9.19368 8.23 9.05301C8.37 8.91234 8.54333 8.84234 8.75 8.84301C8.95667 8.84368 9.13 8.91368 9.27 9.05301C9.41 9.19234 9.48 9.36568 9.48 9.57301C9.48 9.78034 9.41 9.95368 9.27 10.093C9.13067 10.233 8.95733 10.303 8.75 10.303M15.25 10.303C15.0433 10.303 14.87 10.2333 14.73 10.094C14.59 9.95401 14.52 9.78068 14.52 9.57401C14.52 9.36734 14.59 9.19368 14.73 9.05301C14.8693 8.91301 15.0427 8.84301 15.25 8.84301C15.4573 8.84301 15.6307 8.91301 15.77 9.05301C15.91 9.19234 15.98 9.36568 15.98 9.57301C15.98 9.77968 15.91 9.95301 15.77 10.093C15.6307 10.233 15.4573 10.303 15.25 10.303ZM12 21.4C10.046 21.4 8.39067 20.7053 7.034 19.316C5.678 17.9253 5 16.2483 5 14.285V9.57301C5 7.77968 5.69733 6.30268 7.092 5.14201C8.48667 3.98134 10.1227 3.40068 12 3.40001C13.7867 3.40001 15.4 3.96534 16.84 5.09601C18.28 6.22668 19 7.71901 19 9.57301V19.631C19 19.8377 18.9233 20.0177 18.77 20.171C18.6167 20.3243 18.4367 20.4007 18.23 20.4H18C16.9613 20.4 16.0733 20.0313 15.336 19.294C14.5987 18.5567 14.2303 17.669 14.231 16.631V16.138C14.231 15.9713 14.179 15.8467 14.075 15.764C13.9717 15.68 13.8583 15.638 13.735 15.638C13.6117 15.638 13.4963 15.68 13.389 15.764C13.2817 15.848 13.229 15.9727 13.231 16.138V16.631C13.231 17.5077 13.4477 18.307 13.881 19.029C14.3143 19.7503 14.8867 20.317 15.598 20.729C15.7713 20.8357 15.8347 20.974 15.788 21.144C15.7413 21.314 15.6413 21.3993 15.488 21.4H12ZM12 14.727C13.596 14.727 14.995 14.2453 16.197 13.282C17.399 12.3187 18 11.0823 18 9.57301C18 8.93368 17.884 8.33534 17.652 7.77801C17.42 7.22068 17.095 6.72934 16.677 6.30401C15.5203 6.37601 14.535 6.80801 13.721 7.60001C12.907 8.39268 12.5 9.36468 12.5 10.516C12.5 10.6573 12.452 10.776 12.356 10.872C12.26 10.968 12.141 11.016 11.999 11.016C11.857 11.016 11.7383 10.968 11.643 10.872C11.5477 10.776 11.5 10.6573 11.5 10.516C11.5 9.36468 11.09 8.39134 10.27 7.59601C9.44867 6.80134 8.45667 6.37934 7.294 6.33001C6.89467 6.75534 6.579 7.24234 6.347 7.79101C6.115 8.33968 5.99933 8.93368 6 9.57301C6 11.0823 6.601 12.3187 7.803 13.282C9.005 14.2453 10.404 14.727 12 14.727Z" fill="#9E2DD3"/>
</svg>
