<svg width="27" height="26" viewBox="0 0 27 26" fill="none" xmlns="http://www.w3.org/2000/svg">
<g clip-path="url(#clip0_2005_12934)">
<path fill-rule="evenodd" clip-rule="evenodd" d="M3.12066 0.951017C3.63685 0.434188 4.33715 0.143497 5.0676 0.142854H16.088C16.2087 0.142639 16.3282 0.166211 16.4398 0.212225C16.5514 0.258238 16.6528 0.32579 16.7382 0.411018L24.0852 7.75796C24.1704 7.8434 24.2379 7.9448 24.2839 8.05637C24.33 8.16794 24.3535 8.28748 24.3533 8.40816V23.102C24.3533 23.8327 24.063 24.5335 23.5464 25.0502C23.0297 25.5669 22.3289 25.8571 21.5982 25.8571H5.0676C4.3369 25.8571 3.63613 25.5669 3.11945 25.0502C2.60277 24.5335 2.3125 23.8327 2.3125 23.102V2.89796C2.3125 2.16694 2.6027 1.4653 3.12066 0.951017ZM9.57679 7.39796C9.82378 7.39796 10.0684 7.34931 10.2965 7.25479C10.5247 7.16027 10.7321 7.02173 10.9067 6.84708C11.0814 6.67243 11.2199 6.46509 11.3144 6.2369C11.409 6.00871 11.4576 5.76413 11.4576 5.51714C11.4576 5.27015 11.409 5.02557 11.3144 4.79738C11.2199 4.56919 11.0814 4.36185 10.9067 4.1872C10.7321 4.01255 10.5247 3.87401 10.2965 3.77949C10.0684 3.68497 9.82378 3.63632 9.57679 3.63632C9.07796 3.63632 8.59957 3.83448 8.24685 4.1872C7.89413 4.53992 7.69597 5.01832 7.69597 5.51714C7.69597 6.01596 7.89413 6.49436 8.24685 6.84708C8.59957 7.1998 9.07796 7.39796 9.57679 7.39796ZM5.75821 15.7551C5.75821 15.1214 6.27066 14.6071 6.90434 14.6071H19.7615C20.0547 14.6233 20.3307 14.751 20.5328 14.9641C20.7349 15.1773 20.8477 15.4597 20.8482 15.7534C20.8486 16.0471 20.7367 16.3298 20.5353 16.5436C20.3339 16.7574 20.0584 16.886 19.7652 16.9031H6.90801C6.60338 16.9031 6.31121 16.7822 6.09563 16.5669C5.88005 16.3517 5.7587 16.0597 5.75821 15.7551ZM5.75821 21.2653C5.75821 20.6316 6.27066 20.1173 6.90434 20.1173H14.2513C14.5445 20.1335 14.8205 20.2612 15.0226 20.4743C15.2247 20.6875 15.3375 20.9699 15.338 21.2636C15.3384 21.5573 15.2265 21.84 15.0251 22.0538C14.8237 22.2676 14.5482 22.3962 14.2549 22.4133H6.90801C6.60338 22.4133 6.31121 22.2924 6.09563 22.0771C5.88005 21.8619 5.7587 21.5699 5.75821 21.2653ZM9.57862 8.65428C8.29291 8.65428 7.11923 9.13734 6.23209 9.93265C5.70495 10.4047 6.11638 11.1633 6.82352 11.1633H12.3301C13.039 11.1633 13.4505 10.4047 12.9233 9.93265C12.0042 9.10748 10.8138 8.65206 9.57862 8.65428Z" fill="currentColor"/>
</g>
<defs>
<clipPath id="clip0_2005_12934">
<rect width="25.7143" height="25.7143" fill="white" transform="translate(0.475586 0.142853)"/>
</clipPath>
</defs>
</svg>
