<svg width="24" height="25" viewBox="0 0 24 25" fill="none" xmlns="http://www.w3.org/2000/svg">
<path d="M11.9999 19.8C12.2448 19.8 12.4812 19.89 12.6642 20.0527C12.8473 20.2155 12.9642 20.4398 12.9929 20.683L12.9999 20.8V21.8C12.9996 22.0549 12.902 22.3 12.727 22.4854C12.5521 22.6707 12.3129 22.7822 12.0585 22.7972C11.804 22.8121 11.5535 22.7293 11.358 22.5657C11.1626 22.4021 11.037 22.1701 11.0069 21.917L10.9999 21.8V20.8C10.9999 20.5348 11.1052 20.2804 11.2928 20.0929C11.4803 19.9054 11.7347 19.8 11.9999 19.8ZM18.3129 17.71L18.4069 17.793L19.1069 18.493C19.2862 18.673 19.3903 18.9144 19.3981 19.1684C19.4059 19.4223 19.3167 19.6697 19.1486 19.8603C18.9806 20.0508 18.7463 20.1703 18.4934 20.1944C18.2405 20.2185 17.9879 20.1454 17.7869 19.99L17.6929 19.907L16.9929 19.207C16.8203 19.0347 16.7166 18.8054 16.7013 18.562C16.686 18.3187 16.7602 18.0781 16.9098 17.8856C17.0595 17.6931 17.2743 17.5619 17.5139 17.5166C17.7535 17.4714 18.0013 17.5153 18.2109 17.64L18.3129 17.71ZM7.00687 17.793C7.17905 17.9652 7.28248 18.1943 7.29776 18.4373C7.31304 18.6803 7.23912 18.9206 7.08987 19.113L7.00687 19.207L6.30687 19.907C6.12691 20.0864 5.88543 20.1905 5.63148 20.1982C5.37754 20.206 5.13016 20.1168 4.93959 19.9488C4.74902 19.7807 4.62956 19.5464 4.60547 19.2935C4.58138 19.0406 4.65446 18.788 4.80987 18.587L4.89287 18.493L5.59287 17.793C5.7804 17.6055 6.0347 17.5002 6.29987 17.5002C6.56503 17.5002 6.81934 17.6055 7.00687 17.793ZM3.99987 11.8C4.25475 11.8003 4.4999 11.8979 4.68524 12.0729C4.87057 12.2478 4.9821 12.487 4.99704 12.7414C5.01198 12.9958 4.92919 13.2464 4.7656 13.4418C4.60201 13.6373 4.36996 13.7629 4.11687 13.793L3.99987 13.8H2.99987C2.74499 13.7997 2.49984 13.7021 2.3145 13.5272C2.12916 13.3522 2.01763 13.113 2.0027 12.8586C1.98776 12.6042 2.07054 12.3536 2.23413 12.1582C2.39772 11.9627 2.62977 11.8371 2.88287 11.807L2.99987 11.8H3.99987ZM20.9999 11.8C21.2547 11.8003 21.4999 11.8979 21.6852 12.0729C21.8706 12.2478 21.9821 12.487 21.997 12.7414C22.012 12.9958 21.9292 13.2464 21.7656 13.4418C21.602 13.6373 21.37 13.7629 21.1169 13.793L20.9999 13.8H19.9999C19.745 13.7997 19.4998 13.7021 19.3145 13.5272C19.1292 13.3522 19.0176 13.113 19.0027 12.8586C18.9878 12.6042 19.0705 12.3536 19.2341 12.1582C19.3977 11.9627 19.6298 11.8371 19.8829 11.807L19.9999 11.8H20.9999ZM6.21287 5.61L6.30687 5.693L7.00687 6.393C7.18622 6.57296 7.29034 6.81444 7.2981 7.06839C7.30585 7.32234 7.21665 7.56972 7.04862 7.76028C6.88059 7.95085 6.64632 8.07031 6.39339 8.0944C6.14047 8.1185 5.88786 8.04541 5.68687 7.89L5.59287 7.807L4.89287 7.107C4.72096 6.93468 4.6178 6.70558 4.60273 6.46264C4.58767 6.21969 4.66173 5.9796 4.81103 5.78736C4.96033 5.59512 5.17463 5.46393 5.41374 5.41839C5.65285 5.37286 5.90036 5.4161 6.10987 5.54L6.21287 5.61ZM19.1069 5.693C19.279 5.8652 19.3825 6.0943 19.3978 6.33732C19.413 6.58035 19.3391 6.8206 19.1899 7.013L19.1069 7.107L18.4069 7.807C18.2269 7.98635 17.9854 8.09048 17.7315 8.09823C17.4775 8.10599 17.2302 8.01679 17.0396 7.84875C16.849 7.68072 16.7296 7.44645 16.7055 7.19353C16.6814 6.94061 16.7545 6.68799 16.9099 6.487L16.9929 6.393L17.6929 5.693C17.8804 5.50553 18.1347 5.40022 18.3999 5.40022C18.665 5.40022 18.9193 5.50553 19.1069 5.693ZM11.9999 2.8C12.2448 2.80004 12.4812 2.88996 12.6642 3.05272C12.8473 3.21548 12.9642 3.43975 12.9929 3.683L12.9999 3.8V4.8C12.9996 5.05488 12.902 5.30004 12.727 5.48537C12.5521 5.67071 12.3129 5.78224 12.0585 5.79717C11.804 5.81211 11.5535 5.72933 11.358 5.56574C11.1626 5.40215 11.037 5.1701 11.0069 4.917L10.9999 4.8V3.8C10.9999 3.53479 11.1052 3.28043 11.2928 3.0929C11.4803 2.90536 11.7347 2.8 11.9999 2.8ZM11.9999 7.8C12.9795 7.79995 13.9377 8.08769 14.7552 8.6275C15.5727 9.16731 16.2137 9.9354 16.5984 10.8364C16.9832 11.7373 17.0948 12.7315 16.9193 13.6953C16.7439 14.6592 16.2892 15.5502 15.6117 16.2579C14.9342 16.9655 14.0637 17.4585 13.1084 17.6756C12.1531 17.8928 11.155 17.8245 10.2382 17.4793C9.32137 17.134 8.52615 16.5271 7.95133 15.7338C7.3765 14.9405 7.04739 13.9958 7.00487 13.017L6.99987 12.8L7.00487 12.583C7.06079 11.2958 7.61148 10.0798 8.54209 9.18866C9.47271 8.29754 10.7114 7.80008 11.9999 7.8Z" fill="currentColor"/>
</svg>
